<svg class="main-svg" xmlns="http://www.w3.org/2000/svg" xmlns:xlink="http://www.w3.org/1999/xlink" width="1140" height="400" style="" viewBox="0 0 1140 400"><rect x="0" y="0" width="1140" height="400" style="fill: rgb(255, 255, 255); fill-opacity: 1;"/><defs id="defs-b7a5ce"><g class="clips"><clipPath id="clipb7a5cexyplot" class="plotclip"><rect width="273.6842105263158" height="300"/></clipPath><clipPath id="clipb7a5cex2y2plot" class="plotclip"><rect width="273.6842105263158" height="300"/></clipPath><clipPath id="clipb7a5cex3y3plot" class="plotclip"><rect width="273.68421052631584" height="300"/></clipPath><clipPath class="axesclip" id="clipb7a5cex"><rect x="50" y="0" width="273.6842105263158" height="400"/></clipPath><clipPath class="axesclip" id="clipb7a5cey"><rect x="0" y="50" width="1140" height="300"/></clipPath><clipPath class="axesclip" id="clipb7a5cexy"><rect x="50" y="50" width="273.6842105263158" height="300"/></clipPath><clipPath class="axesclip" id="clipb7a5cey2"><rect x="0" y="50" width="1140" height="300"/></clipPath><clipPath class="axesclip" id="clipb7a5cexy2"><rect x="50" y="50" width="273.6842105263158" height="300"/></clipPath><clipPath class="axesclip" id="clipb7a5cey3"><rect x="0" y="50" width="1140" height="300"/></clipPath><clipPath class="axesclip" id="clipb7a5cexy3"><rect x="50" y="50" width="273.6842105263158" height="300"/></clipPath><clipPath class="axesclip" id="clipb7a5cex2"><rect x="433.1578947368421" y="0" width="273.6842105263158" height="400"/></clipPath><clipPath class="axesclip" id="clipb7a5cex2y"><rect x="433.1578947368421" y="50" width="273.6842105263158" height="300"/></clipPath><clipPath class="axesclip" id="clipb7a5cex2y2"><rect x="433.1578947368421" y="50" width="273.6842105263158" height="300"/></clipPath><clipPath class="axesclip" id="clipb7a5cex2y3"><rect x="433.1578947368421" y="50" width="273.6842105263158" height="300"/></clipPath><clipPath class="axesclip" id="clipb7a5cex3"><rect x="816.3157894736842" y="0" width="273.68421052631584" height="400"/></clipPath><clipPath class="axesclip" id="clipb7a5cex3y"><rect x="816.3157894736842" y="50" width="273.68421052631584" height="300"/></clipPath><clipPath class="axesclip" id="clipb7a5cex3y2"><rect x="816.3157894736842" y="50" width="273.68421052631584" height="300"/></clipPath><clipPath class="axesclip" id="clipb7a5cex3y3"><rect x="816.3157894736842" y="50" width="273.68421052631584" height="300"/></clipPath></g><g class="gradients"/><g class="patterns"/></defs><g class="bglayer"><rect class="bg" x="46" y="46" width="281.6842105263158" height="308" style="fill: rgb(229, 236, 246); fill-opacity: 1; stroke-width: 0;"/><rect class="bg" x="429.1578947368421" y="46" width="281.6842105263158" height="308" style="fill: rgb(229, 236, 246); fill-opacity: 1; stroke-width: 0;"/><rect class="bg" x="812.3157894736842" y="46" width="281.68421052631584" height="308" style="fill: rgb(229, 236, 246); fill-opacity: 1; stroke-width: 0;"/></g><g class="layer-below"><g class="imagelayer"/><g class="shapelayer"/></g><g class="cartesianlayer"><g class="subplot xy"><g class="layer-subplot"><g class="shapelayer"/><g class="imagelayer"/></g><g class="minor-gridlayer"><g class="x"/><g class="y"/></g><g class="gridlayer"><g class="x"><path class="xgrid crisp" transform="translate(140.74,0)" d="M0,50v300" style="stroke: rgb(255, 255, 255); stroke-opacity: 1; stroke-width: 1px;"/><path class="xgrid crisp" transform="translate(221.62,0)" d="M0,50v300" style="stroke: rgb(255, 255, 255); stroke-opacity: 1; stroke-width: 1px;"/><path class="xgrid crisp" transform="translate(302.49,0)" d="M0,50v300" style="stroke: rgb(255, 255, 255); stroke-opacity: 1; stroke-width: 1px;"/></g><g class="y"><path class="ygrid crisp" transform="translate(0,317.66)" d="M50,0h273.6842105263158" style="stroke: rgb(255, 255, 255); stroke-opacity: 1; stroke-width: 1px;"/><path class="ygrid crisp" transform="translate(0,279.56)" d="M50,0h273.6842105263158" style="stroke: rgb(255, 255, 255); stroke-opacity: 1; stroke-width: 1px;"/><path class="ygrid crisp" transform="translate(0,241.46)" d="M50,0h273.6842105263158" style="stroke: rgb(255, 255, 255); stroke-opacity: 1; stroke-width: 1px;"/><path class="ygrid crisp" transform="translate(0,203.36)" d="M50,0h273.6842105263158" style="stroke: rgb(255, 255, 255); stroke-opacity: 1; stroke-width: 1px;"/><path class="ygrid crisp" transform="translate(0,165.26)" d="M50,0h273.6842105263158" style="stroke: rgb(255, 255, 255); stroke-opacity: 1; stroke-width: 1px;"/><path class="ygrid crisp" transform="translate(0,127.16)" d="M50,0h273.6842105263158" style="stroke: rgb(255, 255, 255); stroke-opacity: 1; stroke-width: 1px;"/><path class="ygrid crisp" transform="translate(0,89.06)" d="M50,0h273.6842105263158" style="stroke: rgb(255, 255, 255); stroke-opacity: 1; stroke-width: 1px;"/></g></g><g class="zerolinelayer"><path class="xzl zl crisp" transform="translate(59.87,0)" d="M0,50v300" style="stroke: rgb(255, 255, 255); stroke-opacity: 1; stroke-width: 2px;"/></g><path class="xlines-below"/><path class="ylines-below"/><g class="overlines-below"/><g class="xaxislayer-below"/><g class="yaxislayer-below"/><g class="overaxes-below"/><g class="plot" transform="translate(50,50)" clip-path="url(#clipb7a5cexyplot)"><g class="scatterlayer mlayer"><g class="trace scatter trace8bd93673-e333-4dc9-8b55-ab33199bff4c" style="stroke-miterlimit: 2; opacity: 1;"><g class="fills"/><g class="errorbars"/><g class="lines"/><g class="points"><path class="point" transform="translate(22.81,280.43)" d="M3,0A3,3 0 1,1 0,-3A3,3 0 0,1 3,0Z" style="opacity: 1; stroke-width: 0px; fill: rgb(48, 162, 218); fill-opacity: 1;"/><path class="point" transform="translate(69.72,232.98)" d="M3,0A3,3 0 1,1 0,-3A3,3 0 0,1 3,0Z" style="opacity: 1; stroke-width: 0px; fill: rgb(48, 162, 218); fill-opacity: 1;"/><path class="point" transform="translate(87.51,208.72)" d="M3,0A3,3 0 1,1 0,-3A3,3 0 0,1 3,0Z" style="opacity: 1; stroke-width: 0px; fill: rgb(48, 162, 218); fill-opacity: 1;"/><path class="point" transform="translate(102.07,184.36)" d="M3,0A3,3 0 1,1 0,-3A3,3 0 0,1 3,0Z" style="opacity: 1; stroke-width: 0px; fill: rgb(48, 162, 218); fill-opacity: 1;"/><path class="point" transform="translate(115.01,171.26)" d="M3,0A3,3 0 1,1 0,-3A3,3 0 0,1 3,0Z" style="opacity: 1; stroke-width: 0px; fill: rgb(48, 162, 218); fill-opacity: 1;"/><path class="point" transform="translate(115.01,187.52)" d="M3,0A3,3 0 1,1 0,-3A3,3 0 0,1 3,0Z" style="opacity: 1; stroke-width: 0px; fill: rgb(48, 162, 218); fill-opacity: 1;"/><path class="point" transform="translate(150.59,134.59)" d="M3,0A3,3 0 1,1 0,-3A3,3 0 0,1 3,0Z" style="opacity: 1; stroke-width: 0px; fill: rgb(48, 162, 218); fill-opacity: 1;"/><path class="point" transform="translate(165.15,123.74)" d="M3,0A3,3 0 1,1 0,-3A3,3 0 0,1 3,0Z" style="opacity: 1; stroke-width: 0px; fill: rgb(48, 162, 218); fill-opacity: 1;"/><path class="point" transform="translate(197.5,85.37)" d="M3,0A3,3 0 1,1 0,-3A3,3 0 0,1 3,0Z" style="opacity: 1; stroke-width: 0px; fill: rgb(48, 162, 218); fill-opacity: 1;"/><path class="point" transform="translate(250.88,19.57)" d="M3,0A3,3 0 1,1 0,-3A3,3 0 0,1 3,0Z" style="opacity: 1; stroke-width: 0px; fill: rgb(48, 162, 218); fill-opacity: 1;"/></g><g class="text"/></g></g></g><g class="overplot"/><path class="xlines-above crisp" d="M0,0" style="fill: none;"/><path class="ylines-above crisp" d="M0,0" style="fill: none;"/><g class="overlines-above"/><g class="xaxislayer-above"><g class="xtick"><text text-anchor="middle" x="0" y="367" transform="translate(59.87,0)" style="font-family: 'Open Sans', verdana, arial, sans-serif; font-size: 12px; fill: rgb(42, 63, 95); fill-opacity: 1; white-space: pre; opacity: 1;">0</text></g><g class="xtick"><text text-anchor="middle" x="0" y="367" style="font-family: 'Open Sans', verdana, arial, sans-serif; font-size: 12px; fill: rgb(42, 63, 95); fill-opacity: 1; white-space: pre; opacity: 1;" transform="translate(140.74,0)">50</text></g><g class="xtick"><text text-anchor="middle" x="0" y="367" style="font-family: 'Open Sans', verdana, arial, sans-serif; font-size: 12px; fill: rgb(42, 63, 95); fill-opacity: 1; white-space: pre; opacity: 1;" transform="translate(221.62,0)">100</text></g><g class="xtick"><text text-anchor="middle" x="0" y="367" style="font-family: 'Open Sans', verdana, arial, sans-serif; font-size: 12px; fill: rgb(42, 63, 95); fill-opacity: 1; white-space: pre; opacity: 1;" transform="translate(302.49,0)">150</text></g></g><g class="yaxislayer-above"><g class="ytick"><text text-anchor="end" x="45" y="4.199999999999999" transform="translate(0,317.66)" style="font-family: 'Open Sans', verdana, arial, sans-serif; font-size: 12px; fill: rgb(42, 63, 95); fill-opacity: 1; white-space: pre; opacity: 1;">20</text></g><g class="ytick"><text text-anchor="end" x="45" y="4.199999999999999" style="font-family: 'Open Sans', verdana, arial, sans-serif; font-size: 12px; fill: rgb(42, 63, 95); fill-opacity: 1; white-space: pre; opacity: 1;" transform="translate(0,279.56)">40</text></g><g class="ytick"><text text-anchor="end" x="45" y="4.199999999999999" style="font-family: 'Open Sans', verdana, arial, sans-serif; font-size: 12px; fill: rgb(42, 63, 95); fill-opacity: 1; white-space: pre; opacity: 1;" transform="translate(0,241.46)">60</text></g><g class="ytick"><text text-anchor="end" x="45" y="4.199999999999999" style="font-family: 'Open Sans', verdana, arial, sans-serif; font-size: 12px; fill: rgb(42, 63, 95); fill-opacity: 1; white-space: pre; opacity: 1;" transform="translate(0,203.36)">80</text></g><g class="ytick"><text text-anchor="end" x="45" y="4.199999999999999" style="font-family: 'Open Sans', verdana, arial, sans-serif; font-size: 12px; fill: rgb(42, 63, 95); fill-opacity: 1; white-space: pre; opacity: 1;" transform="translate(0,165.26)">100</text></g><g class="ytick"><text text-anchor="end" x="45" y="4.199999999999999" style="font-family: 'Open Sans', verdana, arial, sans-serif; font-size: 12px; fill: rgb(42, 63, 95); fill-opacity: 1; white-space: pre; opacity: 1;" transform="translate(0,127.16)">120</text></g><g class="ytick"><text text-anchor="end" x="45" y="4.199999999999999" style="font-family: 'Open Sans', verdana, arial, sans-serif; font-size: 12px; fill: rgb(42, 63, 95); fill-opacity: 1; white-space: pre; opacity: 1;" transform="translate(0,89.06)">140</text></g><g class="ytick"><text text-anchor="end" x="45" y="4.199999999999999" style="font-family: 'Open Sans', verdana, arial, sans-serif; font-size: 12px; fill: rgb(42, 63, 95); fill-opacity: 1; white-space: pre; opacity: 1;" transform="translate(0,50.96)">160</text></g></g><g class="overaxes-above"/></g><g class="subplot x2y2"><g class="layer-subplot"><g class="shapelayer"/><g class="imagelayer"/></g><g class="minor-gridlayer"><g class="x2"/><g class="y2"/></g><g class="gridlayer"><g class="x2"><path class="x2grid crisp" transform="translate(523.8978947368421,0)" d="M0,50v300" style="stroke: rgb(255, 255, 255); stroke-opacity: 1; stroke-width: 1px;"/><path class="x2grid crisp" transform="translate(604.7778947368421,0)" d="M0,50v300" style="stroke: rgb(255, 255, 255); stroke-opacity: 1; stroke-width: 1px;"/><path class="x2grid crisp" transform="translate(685.6478947368421,0)" d="M0,50v300" style="stroke: rgb(255, 255, 255); stroke-opacity: 1; stroke-width: 1px;"/></g><g class="y2"><path class="y2grid crisp" transform="translate(0,317.66)" d="M433.1578947368421,0h273.6842105263158" style="stroke: rgb(255, 255, 255); stroke-opacity: 1; stroke-width: 1px;"/><path class="y2grid crisp" transform="translate(0,279.56)" d="M433.1578947368421,0h273.6842105263158" style="stroke: rgb(255, 255, 255); stroke-opacity: 1; stroke-width: 1px;"/><path class="y2grid crisp" transform="translate(0,241.46)" d="M433.1578947368421,0h273.6842105263158" style="stroke: rgb(255, 255, 255); stroke-opacity: 1; stroke-width: 1px;"/><path class="y2grid crisp" transform="translate(0,203.36)" d="M433.1578947368421,0h273.6842105263158" style="stroke: rgb(255, 255, 255); stroke-opacity: 1; stroke-width: 1px;"/><path class="y2grid crisp" transform="translate(0,165.26)" d="M433.1578947368421,0h273.6842105263158" style="stroke: rgb(255, 255, 255); stroke-opacity: 1; stroke-width: 1px;"/><path class="y2grid crisp" transform="translate(0,127.16)" d="M433.1578947368421,0h273.6842105263158" style="stroke: rgb(255, 255, 255); stroke-opacity: 1; stroke-width: 1px;"/><path class="y2grid crisp" transform="translate(0,89.06)" d="M433.1578947368421,0h273.6842105263158" style="stroke: rgb(255, 255, 255); stroke-opacity: 1; stroke-width: 1px;"/></g></g><g class="zerolinelayer"><path class="x2zl zl crisp" transform="translate(443.0278947368421,0)" d="M0,50v300" style="stroke: rgb(255, 255, 255); stroke-opacity: 1; stroke-width: 2px;"/></g><path class="xlines-below"/><path class="ylines-below"/><g class="overlines-below"/><g class="xaxislayer-below"/><g class="yaxislayer-below"/><g class="overaxes-below"/><g class="plot" transform="translate(433.1578947368421,50)" clip-path="url(#clipb7a5cex2y2plot)"><g class="scatterlayer mlayer"><g class="trace scatter trace5e752db1-9aa0-48f8-a4dd-f22661c805a9" style="stroke-miterlimit: 2; opacity: 1;"><g class="fills"/><g class="errorbars"/><g class="lines"/><g class="points"><path class="point" transform="translate(22.81,167.07)" d="M3,0A3,3 0 1,1 0,-3A3,3 0 0,1 3,0Z" style="opacity: 1; stroke-width: 0px; fill: rgb(48, 162, 218); fill-opacity: 1;"/><path class="point" transform="translate(69.72,167.07)" d="M3,0A3,3 0 1,1 0,-3A3,3 0 0,1 3,0Z" style="opacity: 1; stroke-width: 0px; fill: rgb(48, 162, 218); fill-opacity: 1;"/><path class="point" transform="translate(87.51,167.07)" d="M3,0A3,3 0 1,1 0,-3A3,3 0 0,1 3,0Z" style="opacity: 1; stroke-width: 0px; fill: rgb(48, 162, 218); fill-opacity: 1;"/><path class="point" transform="translate(102.07,167.07)" d="M3,0A3,3 0 1,1 0,-3A3,3 0 0,1 3,0Z" style="opacity: 1; stroke-width: 0px; fill: rgb(48, 162, 218); fill-opacity: 1;"/><path class="point" transform="translate(115.01,167.07)" d="M3,0A3,3 0 1,1 0,-3A3,3 0 0,1 3,0Z" style="opacity: 1; stroke-width: 0px; fill: rgb(48, 162, 218); fill-opacity: 1;"/><path class="point" transform="translate(115.01,167.07)" d="M3,0A3,3 0 1,1 0,-3A3,3 0 0,1 3,0Z" style="opacity: 1; stroke-width: 0px; fill: rgb(48, 162, 218); fill-opacity: 1;"/><path class="point" transform="translate(150.59,167.07)" d="M3,0A3,3 0 1,1 0,-3A3,3 0 0,1 3,0Z" style="opacity: 1; stroke-width: 0px; fill: rgb(48, 162, 218); fill-opacity: 1;"/><path class="point" transform="translate(165.15,167.07)" d="M3,0A3,3 0 1,1 0,-3A3,3 0 0,1 3,0Z" style="opacity: 1; stroke-width: 0px; fill: rgb(48, 162, 218); fill-opacity: 1;"/><path class="point" transform="translate(197.5,167.07)" d="M3,0A3,3 0 1,1 0,-3A3,3 0 0,1 3,0Z" style="opacity: 1; stroke-width: 0px; fill: rgb(48, 162, 218); fill-opacity: 1;"/><path class="point" transform="translate(250.88,167.07)" d="M3,0A3,3 0 1,1 0,-3A3,3 0 0,1 3,0Z" style="opacity: 1; stroke-width: 0px; fill: rgb(48, 162, 218); fill-opacity: 1;"/></g><g class="text"/></g></g></g><g class="overplot"/><path class="xlines-above crisp" d="M0,0" style="fill: none;"/><path class="ylines-above crisp" d="M0,0" style="fill: none;"/><g class="overlines-above"/><g class="xaxislayer-above"><g class="x2tick"><text text-anchor="middle" x="0" y="367" transform="translate(443.0278947368421,0)" style="font-family: 'Open Sans', verdana, arial, sans-serif; font-size: 12px; fill: rgb(42, 63, 95); fill-opacity: 1; white-space: pre; opacity: 1;">0</text></g><g class="x2tick"><text text-anchor="middle" x="0" y="367" style="font-family: 'Open Sans', verdana, arial, sans-serif; font-size: 12px; fill: rgb(42, 63, 95); fill-opacity: 1; white-space: pre; opacity: 1;" transform="translate(523.8978947368421,0)">50</text></g><g class="x2tick"><text text-anchor="middle" x="0" y="367" style="font-family: 'Open Sans', verdana, arial, sans-serif; font-size: 12px; fill: rgb(42, 63, 95); fill-opacity: 1; white-space: pre; opacity: 1;" transform="translate(604.7778947368421,0)">100</text></g><g class="x2tick"><text text-anchor="middle" x="0" y="367" style="font-family: 'Open Sans', verdana, arial, sans-serif; font-size: 12px; fill: rgb(42, 63, 95); fill-opacity: 1; white-space: pre; opacity: 1;" transform="translate(685.6478947368421,0)">150</text></g></g><g class="yaxislayer-above"><g class="y2tick"><text text-anchor="end" x="428.1578947368421" y="4.199999999999999" transform="translate(0,317.66)" style="font-family: 'Open Sans', verdana, arial, sans-serif; font-size: 12px; fill: rgb(42, 63, 95); fill-opacity: 1; white-space: pre; opacity: 1;">20</text></g><g class="y2tick"><text text-anchor="end" x="428.1578947368421" y="4.199999999999999" style="font-family: 'Open Sans', verdana, arial, sans-serif; font-size: 12px; fill: rgb(42, 63, 95); fill-opacity: 1; white-space: pre; opacity: 1;" transform="translate(0,279.56)">40</text></g><g class="y2tick"><text text-anchor="end" x="428.1578947368421" y="4.199999999999999" style="font-family: 'Open Sans', verdana, arial, sans-serif; font-size: 12px; fill: rgb(42, 63, 95); fill-opacity: 1; white-space: pre; opacity: 1;" transform="translate(0,241.46)">60</text></g><g class="y2tick"><text text-anchor="end" x="428.1578947368421" y="4.199999999999999" style="font-family: 'Open Sans', verdana, arial, sans-serif; font-size: 12px; fill: rgb(42, 63, 95); fill-opacity: 1; white-space: pre; opacity: 1;" transform="translate(0,203.36)">80</text></g><g class="y2tick"><text text-anchor="end" x="428.1578947368421" y="4.199999999999999" style="font-family: 'Open Sans', verdana, arial, sans-serif; font-size: 12px; fill: rgb(42, 63, 95); fill-opacity: 1; white-space: pre; opacity: 1;" transform="translate(0,165.26)">100</text></g><g class="y2tick"><text text-anchor="end" x="428.1578947368421" y="4.199999999999999" style="font-family: 'Open Sans', verdana, arial, sans-serif; font-size: 12px; fill: rgb(42, 63, 95); fill-opacity: 1; white-space: pre; opacity: 1;" transform="translate(0,127.16)">120</text></g><g class="y2tick"><text text-anchor="end" x="428.1578947368421" y="4.199999999999999" style="font-family: 'Open Sans', verdana, arial, sans-serif; font-size: 12px; fill: rgb(42, 63, 95); fill-opacity: 1; white-space: pre; opacity: 1;" transform="translate(0,89.06)">140</text></g><g class="y2tick"><text text-anchor="end" x="428.1578947368421" y="4.199999999999999" style="font-family: 'Open Sans', verdana, arial, sans-serif; font-size: 12px; fill: rgb(42, 63, 95); fill-opacity: 1; white-space: pre; opacity: 1;" transform="translate(0,50.96)">160</text></g></g><g class="overaxes-above"/></g><g class="subplot x3y3"><g class="layer-subplot"><g class="shapelayer"/><g class="imagelayer"/></g><g class="minor-gridlayer"><g class="x3"/><g class="y3"/></g><g class="gridlayer"><g class="x3"><path class="x3grid crisp" transform="translate(907.0557894736842,0)" d="M0,50v300" style="stroke: rgb(255, 255, 255); stroke-opacity: 1; stroke-width: 1px;"/><path class="x3grid crisp" transform="translate(987.9357894736842,0)" d="M0,50v300" style="stroke: rgb(255, 255, 255); stroke-opacity: 1; stroke-width: 1px;"/><path class="x3grid crisp" transform="translate(1068.8057894736842,0)" d="M0,50v300" style="stroke: rgb(255, 255, 255); stroke-opacity: 1; stroke-width: 1px;"/></g><g class="y3"><path class="y3grid crisp" transform="translate(0,317.66)" d="M816.3157894736842,0h273.68421052631584" style="stroke: rgb(255, 255, 255); stroke-opacity: 1; stroke-width: 1px;"/><path class="y3grid crisp" transform="translate(0,279.56)" d="M816.3157894736842,0h273.68421052631584" style="stroke: rgb(255, 255, 255); stroke-opacity: 1; stroke-width: 1px;"/><path class="y3grid crisp" transform="translate(0,241.46)" d="M816.3157894736842,0h273.68421052631584" style="stroke: rgb(255, 255, 255); stroke-opacity: 1; stroke-width: 1px;"/><path class="y3grid crisp" transform="translate(0,203.36)" d="M816.3157894736842,0h273.68421052631584" style="stroke: rgb(255, 255, 255); stroke-opacity: 1; stroke-width: 1px;"/><path class="y3grid crisp" transform="translate(0,165.26)" d="M816.3157894736842,0h273.68421052631584" style="stroke: rgb(255, 255, 255); stroke-opacity: 1; stroke-width: 1px;"/><path class="y3grid crisp" transform="translate(0,127.16)" d="M816.3157894736842,0h273.68421052631584" style="stroke: rgb(255, 255, 255); stroke-opacity: 1; stroke-width: 1px;"/><path class="y3grid crisp" transform="translate(0,89.06)" d="M816.3157894736842,0h273.68421052631584" style="stroke: rgb(255, 255, 255); stroke-opacity: 1; stroke-width: 1px;"/></g></g><g class="zerolinelayer"><path class="x3zl zl crisp" transform="translate(826.1857894736842,0)" d="M0,50v300" style="stroke: rgb(255, 255, 255); stroke-opacity: 1; stroke-width: 2px;"/></g><path class="xlines-below"/><path class="ylines-below"/><g class="overlines-below"/><g class="xaxislayer-below"/><g class="yaxislayer-below"/><g class="overaxes-below"/><g class="plot" transform="translate(816.3157894736842,50)" clip-path="url(#clipb7a5cex3y3plot)"><g class="scatterlayer mlayer"><g class="trace scatter traced805ebd6-18a9-467e-a535-29ea27386ad4" style="stroke-miterlimit: 2; opacity: 1;"><g class="fills"/><g class="errorbars"/><g class="lines"/><g class="points"><path class="point" transform="translate(22.81,19.57)" d="M3,0A3,3 0 1,1 0,-3A3,3 0 0,1 3,0Z" style="opacity: 1; stroke-width: 0px; fill: rgb(48, 162, 218); fill-opacity: 1;"/><path class="point" transform="translate(69.72,85.37)" d="M3,0A3,3 0 1,1 0,-3A3,3 0 0,1 3,0Z" style="opacity: 1; stroke-width: 0px; fill: rgb(48, 162, 218); fill-opacity: 1;"/><path class="point" transform="translate(87.51,123.74)" d="M3,0A3,3 0 1,1 0,-3A3,3 0 0,1 3,0Z" style="opacity: 1; stroke-width: 0px; fill: rgb(48, 162, 218); fill-opacity: 1;"/><path class="point" transform="translate(102.07,134.59)" d="M3,0A3,3 0 1,1 0,-3A3,3 0 0,1 3,0Z" style="opacity: 1; stroke-width: 0px; fill: rgb(48, 162, 218); fill-opacity: 1;"/><path class="point" transform="translate(115.01,187.52)" d="M3,0A3,3 0 1,1 0,-3A3,3 0 0,1 3,0Z" style="opacity: 1; stroke-width: 0px; fill: rgb(48, 162, 218); fill-opacity: 1;"/><path class="point" transform="translate(115.01,171.26)" d="M3,0A3,3 0 1,1 0,-3A3,3 0 0,1 3,0Z" style="opacity: 1; stroke-width: 0px; fill: rgb(48, 162, 218); fill-opacity: 1;"/><path class="point" transform="translate(150.59,184.36)" d="M3,0A3,3 0 1,1 0,-3A3,3 0 0,1 3,0Z" style="opacity: 1; stroke-width: 0px; fill: rgb(48, 162, 218); fill-opacity: 1;"/><path class="point" transform="translate(165.15,208.72)" d="M3,0A3,3 0 1,1 0,-3A3,3 0 0,1 3,0Z" style="opacity: 1; stroke-width: 0px; fill: rgb(48, 162, 218); fill-opacity: 1;"/><path class="point" transform="translate(197.5,232.98)" d="M3,0A3,3 0 1,1 0,-3A3,3 0 0,1 3,0Z" style="opacity: 1; stroke-width: 0px; fill: rgb(48, 162, 218); fill-opacity: 1;"/><path class="point" transform="translate(250.88,280.43)" d="M3,0A3,3 0 1,1 0,-3A3,3 0 0,1 3,0Z" style="opacity: 1; stroke-width: 0px; fill: rgb(48, 162, 218); fill-opacity: 1;"/></g><g class="text"/></g></g></g><g class="overplot"/><path class="xlines-above crisp" d="M0,0" style="fill: none;"/><path class="ylines-above crisp" d="M0,0" style="fill: none;"/><g class="overlines-above"/><g class="xaxislayer-above"><g class="x3tick"><text text-anchor="middle" x="0" y="367" transform="translate(826.1857894736842,0)" style="font-family: 'Open Sans', verdana, arial, sans-serif; font-size: 12px; fill: rgb(42, 63, 95); fill-opacity: 1; white-space: pre; opacity: 1;">0</text></g><g class="x3tick"><text text-anchor="middle" x="0" y="367" style="font-family: 'Open Sans', verdana, arial, sans-serif; font-size: 12px; fill: rgb(42, 63, 95); fill-opacity: 1; white-space: pre; opacity: 1;" transform="translate(907.0557894736842,0)">50</text></g><g class="x3tick"><text text-anchor="middle" x="0" y="367" style="font-family: 'Open Sans', verdana, arial, sans-serif; font-size: 12px; fill: rgb(42, 63, 95); fill-opacity: 1; white-space: pre; opacity: 1;" transform="translate(987.9357894736842,0)">100</text></g><g class="x3tick"><text text-anchor="middle" x="0" y="367" style="font-family: 'Open Sans', verdana, arial, sans-serif; font-size: 12px; fill: rgb(42, 63, 95); fill-opacity: 1; white-space: pre; opacity: 1;" transform="translate(1068.8057894736842,0)">150</text></g></g><g class="yaxislayer-above"><g class="y3tick"><text text-anchor="end" x="811.3157894736842" y="4.199999999999999" transform="translate(0,317.66)" style="font-family: 'Open Sans', verdana, arial, sans-serif; font-size: 12px; fill: rgb(42, 63, 95); fill-opacity: 1; white-space: pre; opacity: 1;">20</text></g><g class="y3tick"><text text-anchor="end" x="811.3157894736842" y="4.199999999999999" style="font-family: 'Open Sans', verdana, arial, sans-serif; font-size: 12px; fill: rgb(42, 63, 95); fill-opacity: 1; white-space: pre; opacity: 1;" transform="translate(0,279.56)">40</text></g><g class="y3tick"><text text-anchor="end" x="811.3157894736842" y="4.199999999999999" style="font-family: 'Open Sans', verdana, arial, sans-serif; font-size: 12px; fill: rgb(42, 63, 95); fill-opacity: 1; white-space: pre; opacity: 1;" transform="translate(0,241.46)">60</text></g><g class="y3tick"><text text-anchor="end" x="811.3157894736842" y="4.199999999999999" style="font-family: 'Open Sans', verdana, arial, sans-serif; font-size: 12px; fill: rgb(42, 63, 95); fill-opacity: 1; white-space: pre; opacity: 1;" transform="translate(0,203.36)">80</text></g><g class="y3tick"><text text-anchor="end" x="811.3157894736842" y="4.199999999999999" style="font-family: 'Open Sans', verdana, arial, sans-serif; font-size: 12px; fill: rgb(42, 63, 95); fill-opacity: 1; white-space: pre; opacity: 1;" transform="translate(0,165.26)">100</text></g><g class="y3tick"><text text-anchor="end" x="811.3157894736842" y="4.199999999999999" style="font-family: 'Open Sans', verdana, arial, sans-serif; font-size: 12px; fill: rgb(42, 63, 95); fill-opacity: 1; white-space: pre; opacity: 1;" transform="translate(0,127.16)">120</text></g><g class="y3tick"><text text-anchor="end" x="811.3157894736842" y="4.199999999999999" style="font-family: 'Open Sans', verdana, arial, sans-serif; font-size: 12px; fill: rgb(42, 63, 95); fill-opacity: 1; white-space: pre; opacity: 1;" transform="translate(0,89.06)">140</text></g><g class="y3tick"><text text-anchor="end" x="811.3157894736842" y="4.199999999999999" style="font-family: 'Open Sans', verdana, arial, sans-serif; font-size: 12px; fill: rgb(42, 63, 95); fill-opacity: 1; white-space: pre; opacity: 1;" transform="translate(0,50.96)">160</text></g></g><g class="overaxes-above"/></g></g><g class="polarlayer"/><g class="smithlayer"/><g class="ternarylayer"/><g class="geolayer"/><g class="funnelarealayer"/><g class="pielayer"/><g class="iciclelayer"/><g class="treemaplayer"/><g class="sunburstlayer"/><g class="glimages"/><defs id="topdefs-b7a5ce"><g class="clips"/></defs><g class="layer-above"><g class="imagelayer"/><g class="shapelayer"/></g><g class="infolayer"><g class="g-gtitle"/><g class="g-xtitle"><text class="xtitle" x="186.8421052631579" y="390.3" text-anchor="middle" style="font-family: 'Open Sans', verdana, arial, sans-serif; font-size: 14px; fill: rgb(42, 63, 95); opacity: 1; font-weight: normal; white-space: pre;">実測値</text></g><g class="g-x2title"><text class="x2title" x="570" y="390.3" text-anchor="middle" style="font-family: 'Open Sans', verdana, arial, sans-serif; font-size: 14px; fill: rgb(42, 63, 95); opacity: 1; font-weight: normal; white-space: pre;">実測値</text></g><g class="g-x3title"><text class="x3title" x="953.1578947368421" y="390.3" text-anchor="middle" style="font-family: 'Open Sans', verdana, arial, sans-serif; font-size: 14px; fill: rgb(42, 63, 95); opacity: 1; font-weight: normal; white-space: pre;">実測値</text></g><g class="g-ytitle" transform="translate(8.3310546875,0)"><text class="ytitle" transform="rotate(-90,4.668750000000003,200)" x="4.668750000000003" y="200" text-anchor="middle" style="font-family: 'Open Sans', verdana, arial, sans-serif; font-size: 14px; fill: rgb(42, 63, 95); opacity: 1; font-weight: normal; white-space: pre;">予測値</text></g><g class="g-y2title"><text class="y2title" transform="rotate(-90,387.825,200)" x="387.825" y="200" text-anchor="middle" style="font-family: 'Open Sans', verdana, arial, sans-serif; font-size: 14px; fill: rgb(42, 63, 95); opacity: 1; font-weight: normal; white-space: pre;">予測値</text></g><g class="g-y3title"><text class="y3title" transform="rotate(-90,770.98125,200)" x="770.98125" y="200" text-anchor="middle" style="font-family: 'Open Sans', verdana, arial, sans-serif; font-size: 14px; fill: rgb(42, 63, 95); opacity: 1; font-weight: normal; white-space: pre;">予測値</text></g><g class="annotation" data-index="0" style="opacity: 1;"><g class="annotation-text-g" transform="rotate(0,186.8421052631579,37.5)"><g class="cursor-pointer" transform="translate(144,28)"><rect class="bg" x="0.5" y="0.5" width="84" height="18" style="stroke-width: 1px; stroke: rgb(0, 0, 0); stroke-opacity: 0; fill: rgb(0, 0, 0); fill-opacity: 0;"/><text class="annotation-text" text-anchor="middle" x="42.46875" y="14" style="font-family: 'Open Sans', verdana, arial, sans-serif; font-size: 13px; fill: rgb(42, 63, 95); fill-opacity: 1; white-space: pre;">決定係数:0.99</text></g></g></g><g class="annotation" data-index="1" style="opacity: 1;"><g class="annotation-text-g" transform="rotate(0,570,37.5)"><g class="cursor-pointer" transform="translate(531,28)"><rect class="bg" x="0.5" y="0.5" width="77" height="18" style="stroke-width: 1px; stroke: rgb(0, 0, 0); stroke-opacity: 0; fill: rgb(0, 0, 0); fill-opacity: 0;"/><text class="annotation-text" text-anchor="middle" x="38.84375" y="14" style="font-family: 'Open Sans', verdana, arial, sans-serif; font-size: 13px; fill: rgb(42, 63, 95); fill-opacity: 1; white-space: pre;">決定係数:0.0</text></g></g></g><g class="annotation" data-index="2" style="opacity: 1;"><g class="annotation-text-g" transform="rotate(0,953.1578947368422,37.5)"><g class="cursor-pointer" transform="translate(909,28)"><rect class="bg" x="0.5" y="0.5" width="88" height="18" style="stroke-width: 1px; stroke: rgb(0, 0, 0); stroke-opacity: 0; fill: rgb(0, 0, 0); fill-opacity: 0;"/><text class="annotation-text" text-anchor="middle" x="44.625" y="14" style="font-family: 'Open Sans', verdana, arial, sans-serif; font-size: 13px; fill: rgb(42, 63, 95); fill-opacity: 1; white-space: pre;">決定係数:-3.06</text></g></g></g></g></svg>